<?xml version="1.0" encoding="utf-8" standalone="no"?>
<!DOCTYPE svg PUBLIC "-//W3C//DTD SVG 1.1//EN"
  "http://www.w3.org/Graphics/SVG/1.1/DTD/svg11.dtd">
<svg xmlns:xlink="http://www.w3.org/1999/xlink" width="460.8pt" height="345.6pt" viewBox="0 0 460.8 345.6" xmlns="http://www.w3.org/2000/svg" version="1.1">
 <metadata>
  <rdf:RDF xmlns:dc="http://purl.org/dc/elements/1.1/" xmlns:cc="http://creativecommons.org/ns#" xmlns:rdf="http://www.w3.org/1999/02/22-rdf-syntax-ns#">
   <cc:Work>
    <dc:type rdf:resource="http://purl.org/dc/dcmitype/StillImage"/>
    <dc:date>1980-01-01T00:00:00+00:00</dc:date>
    <dc:format>image/svg+xml</dc:format>
    <dc:creator>
     <cc:Agent>
      <dc:title>Matplotlib v3.10.1, https://matplotlib.org/</dc:title>
     </cc:Agent>
    </dc:creator>
   </cc:Work>
  </rdf:RDF>
 </metadata>
 <defs>
  <style type="text/css">*{stroke-linejoin: round; stroke-linecap: butt}</style>
 </defs>
 <g id="figure_1">
  <g id="patch_1">
   <path d="M 0 345.6 
L 460.8 345.6 
L 460.8 0 
L 0 0 
L 0 345.6 
z
" style="fill: none"/>
  </g>
  <g id="axes_1">
   <g id="patch_2">
    <path d="M 76.94 317.72 
L 383.86 317.72 
L 383.86 10.8 
L 76.94 10.8 
L 76.94 317.72 
z
" style="fill: none"/>
   </g>
   <g id="QuadMesh_1">
    <path d="M 76.94 10.8 
L 111.042222 10.8 
L 111.042222 44.902222 
L 76.94 44.902222 
L 76.94 10.8 
" clip-path="url(#p4cae0cb20a)" style="fill: #fde725"/>
    <path d="M 111.042222 10.8 
L 145.144444 10.8 
L 145.144444 44.902222 
L 111.042222 44.902222 
L 111.042222 10.8 
" clip-path="url(#p4cae0cb20a)" style="fill: #2ab07f"/>
    <path d="M 145.144444 10.8 
L 179.246667 10.8 
L 179.246667 44.902222 
L 145.144444 44.902222 
L 145.144444 10.8 
" clip-path="url(#p4cae0cb20a)" style="fill: #75d054"/>
    <path d="M 179.246667 10.8 
L 213.348889 10.8 
L 213.348889 44.902222 
L 179.246667 44.902222 
L 179.246667 10.8 
" clip-path="url(#p4cae0cb20a)" style="fill: #6ccd5a"/>
    <path d="M 213.348889 10.8 
L 247.451111 10.8 
L 247.451111 44.902222 
L 213.348889 44.902222 
L 213.348889 10.8 
" clip-path="url(#p4cae0cb20a)" style="fill: #23898e"/>
    <path d="M 247.451111 10.8 
L 281.553333 10.8 
L 281.553333 44.902222 
L 247.451111 44.902222 
L 247.451111 10.8 
" clip-path="url(#p4cae0cb20a)" style="fill: #470d60"/>
    <path d="M 281.553333 10.8 
L 315.655556 10.8 
L 315.655556 44.902222 
L 281.553333 44.902222 
L 281.553333 10.8 
" clip-path="url(#p4cae0cb20a)" style="fill: #481c6e"/>
    <path d="M 315.655556 10.8 
L 349.757778 10.8 
L 349.757778 44.902222 
L 315.655556 44.902222 
L 315.655556 10.8 
" clip-path="url(#p4cae0cb20a)" style="fill: #471063"/>
    <path d="M 349.757778 10.8 
L 383.86 10.8 
L 383.86 44.902222 
L 349.757778 44.902222 
L 349.757778 10.8 
" clip-path="url(#p4cae0cb20a)" style="fill: #471063"/>
    <path d="M 76.94 44.902222 
L 111.042222 44.902222 
L 111.042222 79.004444 
L 76.94 79.004444 
L 76.94 44.902222 
" clip-path="url(#p4cae0cb20a)" style="fill: #2ab07f"/>
    <path d="M 111.042222 44.902222 
L 145.144444 44.902222 
L 145.144444 79.004444 
L 111.042222 79.004444 
L 111.042222 44.902222 
" clip-path="url(#p4cae0cb20a)" style="fill: #fde725"/>
    <path d="M 145.144444 44.902222 
L 179.246667 44.902222 
L 179.246667 79.004444 
L 145.144444 79.004444 
L 145.144444 44.902222 
" clip-path="url(#p4cae0cb20a)" style="fill: #21908d"/>
    <path d="M 179.246667 44.902222 
L 213.348889 44.902222 
L 213.348889 79.004444 
L 179.246667 79.004444 
L 179.246667 44.902222 
" clip-path="url(#p4cae0cb20a)" style="fill: #228c8d"/>
    <path d="M 213.348889 44.902222 
L 247.451111 44.902222 
L 247.451111 79.004444 
L 213.348889 79.004444 
L 213.348889 44.902222 
" clip-path="url(#p4cae0cb20a)" style="fill: #453781"/>
    <path d="M 247.451111 44.902222 
L 281.553333 44.902222 
L 281.553333 79.004444 
L 247.451111 79.004444 
L 247.451111 44.902222 
" clip-path="url(#p4cae0cb20a)" style="fill: #3d4e8a"/>
    <path d="M 281.553333 44.902222 
L 315.655556 44.902222 
L 315.655556 79.004444 
L 281.553333 79.004444 
L 281.553333 44.902222 
" clip-path="url(#p4cae0cb20a)" style="fill: #481c6e"/>
    <path d="M 315.655556 44.902222 
L 349.757778 44.902222 
L 349.757778 79.004444 
L 315.655556 79.004444 
L 315.655556 44.902222 
" clip-path="url(#p4cae0cb20a)" style="fill: #481467"/>
    <path d="M 349.757778 44.902222 
L 383.86 44.902222 
L 383.86 79.004444 
L 349.757778 79.004444 
L 349.757778 44.902222 
" clip-path="url(#p4cae0cb20a)" style="fill: #481467"/>
    <path d="M 76.94 79.004444 
L 111.042222 79.004444 
L 111.042222 113.106667 
L 76.94 113.106667 
L 76.94 79.004444 
" clip-path="url(#p4cae0cb20a)" style="fill: #75d054"/>
    <path d="M 111.042222 79.004444 
L 145.144444 79.004444 
L 145.144444 113.106667 
L 111.042222 113.106667 
L 111.042222 79.004444 
" clip-path="url(#p4cae0cb20a)" style="fill: #21908d"/>
    <path d="M 145.144444 79.004444 
L 179.246667 79.004444 
L 179.246667 113.106667 
L 145.144444 113.106667 
L 145.144444 79.004444 
" clip-path="url(#p4cae0cb20a)" style="fill: #fde725"/>
    <path d="M 179.246667 79.004444 
L 213.348889 79.004444 
L 213.348889 113.106667 
L 179.246667 113.106667 
L 179.246667 79.004444 
" clip-path="url(#p4cae0cb20a)" style="fill: #3aba76"/>
    <path d="M 213.348889 79.004444 
L 247.451111 79.004444 
L 247.451111 113.106667 
L 213.348889 113.106667 
L 213.348889 79.004444 
" clip-path="url(#p4cae0cb20a)" style="fill: #1e9b8a"/>
    <path d="M 247.451111 79.004444 
L 281.553333 79.004444 
L 281.553333 113.106667 
L 247.451111 113.106667 
L 247.451111 79.004444 
" clip-path="url(#p4cae0cb20a)" style="fill: #440154"/>
    <path d="M 281.553333 79.004444 
L 315.655556 79.004444 
L 315.655556 113.106667 
L 281.553333 113.106667 
L 281.553333 79.004444 
" clip-path="url(#p4cae0cb20a)" style="fill: #460b5e"/>
    <path d="M 315.655556 79.004444 
L 349.757778 79.004444 
L 349.757778 113.106667 
L 315.655556 113.106667 
L 315.655556 79.004444 
" clip-path="url(#p4cae0cb20a)" style="fill: #481d6f"/>
    <path d="M 349.757778 79.004444 
L 383.86 79.004444 
L 383.86 113.106667 
L 349.757778 113.106667 
L 349.757778 79.004444 
" clip-path="url(#p4cae0cb20a)" style="fill: #481d6f"/>
    <path d="M 76.94 113.106667 
L 111.042222 113.106667 
L 111.042222 147.208889 
L 76.94 147.208889 
L 76.94 113.106667 
" clip-path="url(#p4cae0cb20a)" style="fill: #6ccd5a"/>
    <path d="M 111.042222 113.106667 
L 145.144444 113.106667 
L 145.144444 147.208889 
L 111.042222 147.208889 
L 111.042222 113.106667 
" clip-path="url(#p4cae0cb20a)" style="fill: #228c8d"/>
    <path d="M 145.144444 113.106667 
L 179.246667 113.106667 
L 179.246667 147.208889 
L 145.144444 147.208889 
L 145.144444 113.106667 
" clip-path="url(#p4cae0cb20a)" style="fill: #3aba76"/>
    <path d="M 179.246667 113.106667 
L 213.348889 113.106667 
L 213.348889 147.208889 
L 179.246667 147.208889 
L 179.246667 113.106667 
" clip-path="url(#p4cae0cb20a)" style="fill: #fde725"/>
    <path d="M 213.348889 113.106667 
L 247.451111 113.106667 
L 247.451111 147.208889 
L 213.348889 147.208889 
L 213.348889 113.106667 
" clip-path="url(#p4cae0cb20a)" style="fill: #24868e"/>
    <path d="M 247.451111 113.106667 
L 281.553333 113.106667 
L 281.553333 147.208889 
L 247.451111 147.208889 
L 247.451111 113.106667 
" clip-path="url(#p4cae0cb20a)" style="fill: #482677"/>
    <path d="M 281.553333 113.106667 
L 315.655556 113.106667 
L 315.655556 147.208889 
L 281.553333 147.208889 
L 281.553333 113.106667 
" clip-path="url(#p4cae0cb20a)" style="fill: #3f4889"/>
    <path d="M 315.655556 113.106667 
L 349.757778 113.106667 
L 349.757778 147.208889 
L 315.655556 147.208889 
L 315.655556 113.106667 
" clip-path="url(#p4cae0cb20a)" style="fill: #472a7a"/>
    <path d="M 349.757778 113.106667 
L 383.86 113.106667 
L 383.86 147.208889 
L 349.757778 147.208889 
L 349.757778 113.106667 
" clip-path="url(#p4cae0cb20a)" style="fill: #472a7a"/>
    <path d="M 76.94 147.208889 
L 111.042222 147.208889 
L 111.042222 181.311111 
L 76.94 181.311111 
L 76.94 147.208889 
" clip-path="url(#p4cae0cb20a)" style="fill: #23898e"/>
    <path d="M 111.042222 147.208889 
L 145.144444 147.208889 
L 145.144444 181.311111 
L 111.042222 181.311111 
L 111.042222 147.208889 
" clip-path="url(#p4cae0cb20a)" style="fill: #453781"/>
    <path d="M 145.144444 147.208889 
L 179.246667 147.208889 
L 179.246667 181.311111 
L 145.144444 181.311111 
L 145.144444 147.208889 
" clip-path="url(#p4cae0cb20a)" style="fill: #1e9b8a"/>
    <path d="M 179.246667 147.208889 
L 213.348889 147.208889 
L 213.348889 181.311111 
L 179.246667 181.311111 
L 179.246667 147.208889 
" clip-path="url(#p4cae0cb20a)" style="fill: #24868e"/>
    <path d="M 213.348889 147.208889 
L 247.451111 147.208889 
L 247.451111 181.311111 
L 213.348889 181.311111 
L 213.348889 147.208889 
" clip-path="url(#p4cae0cb20a)" style="fill: #fde725"/>
    <path d="M 247.451111 147.208889 
L 281.553333 147.208889 
L 281.553333 181.311111 
L 247.451111 181.311111 
L 247.451111 147.208889 
" clip-path="url(#p4cae0cb20a)" style="fill: #482374"/>
    <path d="M 281.553333 147.208889 
L 315.655556 147.208889 
L 315.655556 181.311111 
L 281.553333 181.311111 
L 281.553333 147.208889 
" clip-path="url(#p4cae0cb20a)" style="fill: #3e4c8a"/>
    <path d="M 315.655556 147.208889 
L 349.757778 147.208889 
L 349.757778 181.311111 
L 315.655556 181.311111 
L 315.655556 147.208889 
" clip-path="url(#p4cae0cb20a)" style="fill: #3f4788"/>
    <path d="M 349.757778 147.208889 
L 383.86 147.208889 
L 383.86 181.311111 
L 349.757778 181.311111 
L 349.757778 147.208889 
" clip-path="url(#p4cae0cb20a)" style="fill: #3f4788"/>
    <path d="M 76.94 181.311111 
L 111.042222 181.311111 
L 111.042222 215.413333 
L 76.94 215.413333 
L 76.94 181.311111 
" clip-path="url(#p4cae0cb20a)" style="fill: #470d60"/>
    <path d="M 111.042222 181.311111 
L 145.144444 181.311111 
L 145.144444 215.413333 
L 111.042222 215.413333 
L 111.042222 181.311111 
" clip-path="url(#p4cae0cb20a)" style="fill: #3d4e8a"/>
    <path d="M 145.144444 181.311111 
L 179.246667 181.311111 
L 179.246667 215.413333 
L 145.144444 215.413333 
L 145.144444 181.311111 
" clip-path="url(#p4cae0cb20a)" style="fill: #440154"/>
    <path d="M 179.246667 181.311111 
L 213.348889 181.311111 
L 213.348889 215.413333 
L 179.246667 215.413333 
L 179.246667 181.311111 
" clip-path="url(#p4cae0cb20a)" style="fill: #482677"/>
    <path d="M 213.348889 181.311111 
L 247.451111 181.311111 
L 247.451111 215.413333 
L 213.348889 215.413333 
L 213.348889 181.311111 
" clip-path="url(#p4cae0cb20a)" style="fill: #482374"/>
    <path d="M 247.451111 181.311111 
L 281.553333 181.311111 
L 281.553333 215.413333 
L 247.451111 215.413333 
L 247.451111 181.311111 
" clip-path="url(#p4cae0cb20a)" style="fill: #fde725"/>
    <path d="M 281.553333 181.311111 
L 315.655556 181.311111 
L 315.655556 215.413333 
L 281.553333 215.413333 
L 281.553333 181.311111 
" clip-path="url(#p4cae0cb20a)" style="fill: #69cd5b"/>
    <path d="M 315.655556 181.311111 
L 349.757778 181.311111 
L 349.757778 215.413333 
L 315.655556 215.413333 
L 315.655556 181.311111 
" clip-path="url(#p4cae0cb20a)" style="fill: #73d056"/>
    <path d="M 349.757778 181.311111 
L 383.86 181.311111 
L 383.86 215.413333 
L 349.757778 215.413333 
L 349.757778 181.311111 
" clip-path="url(#p4cae0cb20a)" style="fill: #73d056"/>
    <path d="M 76.94 215.413333 
L 111.042222 215.413333 
L 111.042222 249.515556 
L 76.94 249.515556 
L 76.94 215.413333 
" clip-path="url(#p4cae0cb20a)" style="fill: #481c6e"/>
    <path d="M 111.042222 215.413333 
L 145.144444 215.413333 
L 145.144444 249.515556 
L 111.042222 249.515556 
L 111.042222 215.413333 
" clip-path="url(#p4cae0cb20a)" style="fill: #481c6e"/>
    <path d="M 145.144444 215.413333 
L 179.246667 215.413333 
L 179.246667 249.515556 
L 145.144444 249.515556 
L 145.144444 215.413333 
" clip-path="url(#p4cae0cb20a)" style="fill: #460b5e"/>
    <path d="M 179.246667 215.413333 
L 213.348889 215.413333 
L 213.348889 249.515556 
L 179.246667 249.515556 
L 179.246667 215.413333 
" clip-path="url(#p4cae0cb20a)" style="fill: #3f4889"/>
    <path d="M 213.348889 215.413333 
L 247.451111 215.413333 
L 247.451111 249.515556 
L 213.348889 249.515556 
L 213.348889 215.413333 
" clip-path="url(#p4cae0cb20a)" style="fill: #3e4c8a"/>
    <path d="M 247.451111 215.413333 
L 281.553333 215.413333 
L 281.553333 249.515556 
L 247.451111 249.515556 
L 247.451111 215.413333 
" clip-path="url(#p4cae0cb20a)" style="fill: #69cd5b"/>
    <path d="M 281.553333 215.413333 
L 315.655556 215.413333 
L 315.655556 249.515556 
L 281.553333 249.515556 
L 281.553333 215.413333 
" clip-path="url(#p4cae0cb20a)" style="fill: #fde725"/>
    <path d="M 315.655556 215.413333 
L 349.757778 215.413333 
L 349.757778 249.515556 
L 315.655556 249.515556 
L 315.655556 215.413333 
" clip-path="url(#p4cae0cb20a)" style="fill: #bddf26"/>
    <path d="M 349.757778 215.413333 
L 383.86 215.413333 
L 383.86 249.515556 
L 349.757778 249.515556 
L 349.757778 215.413333 
" clip-path="url(#p4cae0cb20a)" style="fill: #bddf26"/>
    <path d="M 76.94 249.515556 
L 111.042222 249.515556 
L 111.042222 283.617778 
L 76.94 283.617778 
L 76.94 249.515556 
" clip-path="url(#p4cae0cb20a)" style="fill: #471063"/>
    <path d="M 111.042222 249.515556 
L 145.144444 249.515556 
L 145.144444 283.617778 
L 111.042222 283.617778 
L 111.042222 249.515556 
" clip-path="url(#p4cae0cb20a)" style="fill: #481467"/>
    <path d="M 145.144444 249.515556 
L 179.246667 249.515556 
L 179.246667 283.617778 
L 145.144444 283.617778 
L 145.144444 249.515556 
" clip-path="url(#p4cae0cb20a)" style="fill: #481d6f"/>
    <path d="M 179.246667 249.515556 
L 213.348889 249.515556 
L 213.348889 283.617778 
L 179.246667 283.617778 
L 179.246667 249.515556 
" clip-path="url(#p4cae0cb20a)" style="fill: #472a7a"/>
    <path d="M 213.348889 249.515556 
L 247.451111 249.515556 
L 247.451111 283.617778 
L 213.348889 283.617778 
L 213.348889 249.515556 
" clip-path="url(#p4cae0cb20a)" style="fill: #3f4788"/>
    <path d="M 247.451111 249.515556 
L 281.553333 249.515556 
L 281.553333 283.617778 
L 247.451111 283.617778 
L 247.451111 249.515556 
" clip-path="url(#p4cae0cb20a)" style="fill: #73d056"/>
    <path d="M 281.553333 249.515556 
L 315.655556 249.515556 
L 315.655556 283.617778 
L 281.553333 283.617778 
L 281.553333 249.515556 
" clip-path="url(#p4cae0cb20a)" style="fill: #bddf26"/>
    <path d="M 315.655556 249.515556 
L 349.757778 249.515556 
L 349.757778 283.617778 
L 315.655556 283.617778 
L 315.655556 249.515556 
" clip-path="url(#p4cae0cb20a)" style="fill: #fde725"/>
    <path d="M 349.757778 249.515556 
L 383.86 249.515556 
L 383.86 283.617778 
L 349.757778 283.617778 
L 349.757778 249.515556 
" clip-path="url(#p4cae0cb20a)" style="fill: #fde725"/>
    <path d="M 76.94 283.617778 
L 111.042222 283.617778 
L 111.042222 317.72 
L 76.94 317.72 
L 76.94 283.617778 
" clip-path="url(#p4cae0cb20a)" style="fill: #471063"/>
    <path d="M 111.042222 283.617778 
L 145.144444 283.617778 
L 145.144444 317.72 
L 111.042222 317.72 
L 111.042222 283.617778 
" clip-path="url(#p4cae0cb20a)" style="fill: #481467"/>
    <path d="M 145.144444 283.617778 
L 179.246667 283.617778 
L 179.246667 317.72 
L 145.144444 317.72 
L 145.144444 283.617778 
" clip-path="url(#p4cae0cb20a)" style="fill: #481d6f"/>
    <path d="M 179.246667 283.617778 
L 213.348889 283.617778 
L 213.348889 317.72 
L 179.246667 317.72 
L 179.246667 283.617778 
" clip-path="url(#p4cae0cb20a)" style="fill: #472a7a"/>
    <path d="M 213.348889 283.617778 
L 247.451111 283.617778 
L 247.451111 317.72 
L 213.348889 317.72 
L 213.348889 283.617778 
" clip-path="url(#p4cae0cb20a)" style="fill: #3f4788"/>
    <path d="M 247.451111 283.617778 
L 281.553333 283.617778 
L 281.553333 317.72 
L 247.451111 317.72 
L 247.451111 283.617778 
" clip-path="url(#p4cae0cb20a)" style="fill: #73d056"/>
    <path d="M 281.553333 283.617778 
L 315.655556 283.617778 
L 315.655556 317.72 
L 281.553333 317.72 
L 281.553333 283.617778 
" clip-path="url(#p4cae0cb20a)" style="fill: #bddf26"/>
    <path d="M 315.655556 283.617778 
L 349.757778 283.617778 
L 349.757778 317.72 
L 315.655556 317.72 
L 315.655556 283.617778 
" clip-path="url(#p4cae0cb20a)" style="fill: #fde725"/>
    <path d="M 349.757778 283.617778 
L 383.86 283.617778 
L 383.86 317.72 
L 349.757778 317.72 
L 349.757778 283.617778 
" clip-path="url(#p4cae0cb20a)" style="fill: #fde725"/>
   </g>
   <g id="matplotlib.axis_1">
    <g id="xtick_1">
     <g id="line2d_1">
      <defs>
       <path id="m22386bdeb3" d="M 0 0 
L 0 3.5 
" style="stroke: #000000; stroke-width: 0.8"/>
      </defs>
      <g>
       <use xlink:href="#m22386bdeb3" x="93.991111" y="317.72" style="stroke: #000000; stroke-width: 0.8"/>
      </g>
     </g>
     <g id="text_1">
      <!-- C -->
      <g transform="translate(90.499705 332.318437) scale(0.1 -0.1)">
       <defs>
        <path id="DejaVuSans-43" d="M 4122 4306 
L 4122 3641 
Q 3803 3938 3442 4084 
Q 3081 4231 2675 4231 
Q 1875 4231 1450 3742 
Q 1025 3253 1025 2328 
Q 1025 1406 1450 917 
Q 1875 428 2675 428 
Q 3081 428 3442 575 
Q 3803 722 4122 1019 
L 4122 359 
Q 3791 134 3420 21 
Q 3050 -91 2638 -91 
Q 1578 -91 968 557 
Q 359 1206 359 2328 
Q 359 3453 968 4101 
Q 1578 4750 2638 4750 
Q 3056 4750 3426 4639 
Q 3797 4528 4122 4306 
z
" transform="scale(0.015625)"/>
       </defs>
       <use xlink:href="#DejaVuSans-43"/>
      </g>
     </g>
    </g>
    <g id="xtick_2">
     <g id="line2d_2">
      <g>
       <use xlink:href="#m22386bdeb3" x="128.093333" y="317.72" style="stroke: #000000; stroke-width: 0.8"/>
      </g>
     </g>
     <g id="text_2">
      <!-- MP -->
      <g transform="translate(120.764427 332.318437) scale(0.1 -0.1)">
       <defs>
        <path id="DejaVuSans-4d" d="M 628 4666 
L 1569 4666 
L 2759 1491 
L 3956 4666 
L 4897 4666 
L 4897 0 
L 4281 0 
L 4281 4097 
L 3078 897 
L 2444 897 
L 1241 4097 
L 1241 0 
L 628 0 
L 628 4666 
z
" transform="scale(0.015625)"/>
        <path id="DejaVuSans-50" d="M 1259 4147 
L 1259 2394 
L 2053 2394 
Q 2494 2394 2734 2622 
Q 2975 2850 2975 3272 
Q 2975 3691 2734 3919 
Q 2494 4147 2053 4147 
L 1259 4147 
z
M 628 4666 
L 2053 4666 
Q 2838 4666 3239 4311 
Q 3641 3956 3641 3272 
Q 3641 2581 3239 2228 
Q 2838 1875 2053 1875 
L 1259 1875 
L 1259 0 
L 628 0 
L 628 4666 
z
" transform="scale(0.015625)"/>
       </defs>
       <use xlink:href="#DejaVuSans-4d"/>
       <use xlink:href="#DejaVuSans-50" transform="translate(86.279297 0)"/>
      </g>
     </g>
    </g>
    <g id="xtick_3">
     <g id="line2d_3">
      <g>
       <use xlink:href="#m22386bdeb3" x="162.195556" y="317.72" style="stroke: #000000; stroke-width: 0.8"/>
      </g>
     </g>
     <g id="text_3">
      <!-- L -->
      <g transform="translate(159.409618 332.318437) scale(0.1 -0.1)">
       <defs>
        <path id="DejaVuSans-4c" d="M 628 4666 
L 1259 4666 
L 1259 531 
L 3531 531 
L 3531 0 
L 628 0 
L 628 4666 
z
" transform="scale(0.015625)"/>
       </defs>
       <use xlink:href="#DejaVuSans-4c"/>
      </g>
     </g>
    </g>
    <g id="xtick_4">
     <g id="line2d_4">
      <g>
       <use xlink:href="#m22386bdeb3" x="196.297778" y="317.72" style="stroke: #000000; stroke-width: 0.8"/>
      </g>
     </g>
     <g id="text_4">
      <!-- FNL -->
      <g transform="translate(186.895434 332.318437) scale(0.1 -0.1)">
       <defs>
        <path id="DejaVuSans-46" d="M 628 4666 
L 3309 4666 
L 3309 4134 
L 1259 4134 
L 1259 2759 
L 3109 2759 
L 3109 2228 
L 1259 2228 
L 1259 0 
L 628 0 
L 628 4666 
z
" transform="scale(0.015625)"/>
        <path id="DejaVuSans-4e" d="M 628 4666 
L 1478 4666 
L 3547 763 
L 3547 4666 
L 4159 4666 
L 4159 0 
L 3309 0 
L 1241 3903 
L 1241 0 
L 628 0 
L 628 4666 
z
" transform="scale(0.015625)"/>
       </defs>
       <use xlink:href="#DejaVuSans-46"/>
       <use xlink:href="#DejaVuSans-4e" transform="translate(57.519531 0)"/>
       <use xlink:href="#DejaVuSans-4c" transform="translate(132.324219 0)"/>
      </g>
     </g>
    </g>
    <g id="xtick_5">
     <g id="line2d_5">
      <g>
       <use xlink:href="#m22386bdeb3" x="230.4" y="317.72" style="stroke: #000000; stroke-width: 0.8"/>
      </g>
     </g>
     <g id="text_5">
      <!-- SD -->
      <g transform="translate(223.375781 332.318437) scale(0.1 -0.1)">
       <defs>
        <path id="DejaVuSans-53" d="M 3425 4513 
L 3425 3897 
Q 3066 4069 2747 4153 
Q 2428 4238 2131 4238 
Q 1616 4238 1336 4038 
Q 1056 3838 1056 3469 
Q 1056 3159 1242 3001 
Q 1428 2844 1947 2747 
L 2328 2669 
Q 3034 2534 3370 2195 
Q 3706 1856 3706 1288 
Q 3706 609 3251 259 
Q 2797 -91 1919 -91 
Q 1588 -91 1214 -16 
Q 841 59 441 206 
L 441 856 
Q 825 641 1194 531 
Q 1563 422 1919 422 
Q 2459 422 2753 634 
Q 3047 847 3047 1241 
Q 3047 1584 2836 1778 
Q 2625 1972 2144 2069 
L 1759 2144 
Q 1053 2284 737 2584 
Q 422 2884 422 3419 
Q 422 4038 858 4394 
Q 1294 4750 2059 4750 
Q 2388 4750 2728 4690 
Q 3069 4631 3425 4513 
z
" transform="scale(0.015625)"/>
        <path id="DejaVuSans-44" d="M 1259 4147 
L 1259 519 
L 2022 519 
Q 2988 519 3436 956 
Q 3884 1394 3884 2338 
Q 3884 3275 3436 3711 
Q 2988 4147 2022 4147 
L 1259 4147 
z
M 628 4666 
L 1925 4666 
Q 3281 4666 3915 4102 
Q 4550 3538 4550 2338 
Q 4550 1131 3912 565 
Q 3275 0 1925 0 
L 628 0 
L 628 4666 
z
" transform="scale(0.015625)"/>
       </defs>
       <use xlink:href="#DejaVuSans-53"/>
       <use xlink:href="#DejaVuSans-44" transform="translate(63.476562 0)"/>
      </g>
     </g>
    </g>
    <g id="xtick_6">
     <g id="line2d_6">
      <g>
       <use xlink:href="#m22386bdeb3" x="264.502222" y="317.72" style="stroke: #000000; stroke-width: 0.8"/>
      </g>
     </g>
     <g id="text_6">
      <!-- V -->
      <g transform="translate(261.08191 332.318437) scale(0.1 -0.1)">
       <defs>
        <path id="DejaVuSans-56" d="M 1831 0 
L 50 4666 
L 709 4666 
L 2188 738 
L 3669 4666 
L 4325 4666 
L 2547 0 
L 1831 0 
z
" transform="scale(0.015625)"/>
       </defs>
       <use xlink:href="#DejaVuSans-56"/>
      </g>
     </g>
    </g>
    <g id="xtick_7">
     <g id="line2d_7">
      <g>
       <use xlink:href="#m22386bdeb3" x="298.604444" y="317.72" style="stroke: #000000; stroke-width: 0.8"/>
      </g>
     </g>
     <g id="text_7">
      <!-- KD -->
      <g transform="translate(291.475538 332.318437) scale(0.1 -0.1)">
       <defs>
        <path id="DejaVuSans-4b" d="M 628 4666 
L 1259 4666 
L 1259 2694 
L 3353 4666 
L 4166 4666 
L 1850 2491 
L 4331 0 
L 3500 0 
L 1259 2247 
L 1259 0 
L 628 0 
L 628 4666 
z
" transform="scale(0.015625)"/>
       </defs>
       <use xlink:href="#DejaVuSans-4b"/>
       <use xlink:href="#DejaVuSans-44" transform="translate(65.576172 0)"/>
      </g>
     </g>
    </g>
    <g id="xtick_8">
     <g id="line2d_8">
      <g>
       <use xlink:href="#m22386bdeb3" x="332.706667" y="317.72" style="stroke: #000000; stroke-width: 0.8"/>
      </g>
     </g>
     <g id="text_8">
      <!-- S -->
      <g transform="translate(329.532448 332.318437) scale(0.1 -0.1)">
       <use xlink:href="#DejaVuSans-53"/>
      </g>
     </g>
    </g>
    <g id="xtick_9">
     <g id="line2d_9">
      <g>
       <use xlink:href="#m22386bdeb3" x="366.808889" y="317.72" style="stroke: #000000; stroke-width: 0.8"/>
      </g>
     </g>
     <g id="text_9">
      <!-- M -->
      <g transform="translate(362.494826 332.318437) scale(0.1 -0.1)">
       <use xlink:href="#DejaVuSans-4d"/>
      </g>
     </g>
    </g>
   </g>
   <g id="matplotlib.axis_2">
    <g id="ytick_1">
     <g id="line2d_10">
      <defs>
       <path id="m9eafff6748" d="M 0 0 
L -3.5 0 
" style="stroke: #000000; stroke-width: 0.8"/>
      </defs>
      <g>
       <use xlink:href="#m9eafff6748" x="76.94" y="27.851111" style="stroke: #000000; stroke-width: 0.8"/>
      </g>
     </g>
     <g id="text_10">
      <!-- C -->
      <g transform="translate(67.860313 31.342517) rotate(-90) scale(0.1 -0.1)">
       <use xlink:href="#DejaVuSans-43"/>
      </g>
     </g>
    </g>
    <g id="ytick_2">
     <g id="line2d_11">
      <g>
       <use xlink:href="#m9eafff6748" x="76.94" y="61.953333" style="stroke: #000000; stroke-width: 0.8"/>
      </g>
     </g>
     <g id="text_11">
      <!-- MP -->
      <g transform="translate(67.860313 69.28224) rotate(-90) scale(0.1 -0.1)">
       <use xlink:href="#DejaVuSans-4d"/>
       <use xlink:href="#DejaVuSans-50" transform="translate(86.279297 0)"/>
      </g>
     </g>
    </g>
    <g id="ytick_3">
     <g id="line2d_12">
      <g>
       <use xlink:href="#m9eafff6748" x="76.94" y="96.055556" style="stroke: #000000; stroke-width: 0.8"/>
      </g>
     </g>
     <g id="text_12">
      <!-- L -->
      <g transform="translate(67.860313 98.841493) rotate(-90) scale(0.1 -0.1)">
       <use xlink:href="#DejaVuSans-4c"/>
      </g>
     </g>
    </g>
    <g id="ytick_4">
     <g id="line2d_13">
      <g>
       <use xlink:href="#m9eafff6748" x="76.94" y="130.157778" style="stroke: #000000; stroke-width: 0.8"/>
      </g>
     </g>
     <g id="text_13">
      <!-- FNL -->
      <g transform="translate(67.860313 139.560122) rotate(-90) scale(0.1 -0.1)">
       <use xlink:href="#DejaVuSans-46"/>
       <use xlink:href="#DejaVuSans-4e" transform="translate(57.519531 0)"/>
       <use xlink:href="#DejaVuSans-4c" transform="translate(132.324219 0)"/>
      </g>
     </g>
    </g>
    <g id="ytick_5">
     <g id="line2d_14">
      <g>
       <use xlink:href="#m9eafff6748" x="76.94" y="164.26" style="stroke: #000000; stroke-width: 0.8"/>
      </g>
     </g>
     <g id="text_14">
      <!-- SD -->
      <g transform="translate(67.860313 171.284219) rotate(-90) scale(0.1 -0.1)">
       <use xlink:href="#DejaVuSans-53"/>
       <use xlink:href="#DejaVuSans-44" transform="translate(63.476562 0)"/>
      </g>
     </g>
    </g>
    <g id="ytick_6">
     <g id="line2d_15">
      <g>
       <use xlink:href="#m9eafff6748" x="76.94" y="198.362222" style="stroke: #000000; stroke-width: 0.8"/>
      </g>
     </g>
     <g id="text_15">
      <!-- V -->
      <g transform="translate(67.860313 201.782535) rotate(-90) scale(0.1 -0.1)">
       <use xlink:href="#DejaVuSans-56"/>
      </g>
     </g>
    </g>
    <g id="ytick_7">
     <g id="line2d_16">
      <g>
       <use xlink:href="#m9eafff6748" x="76.94" y="232.464444" style="stroke: #000000; stroke-width: 0.8"/>
      </g>
     </g>
     <g id="text_16">
      <!-- KD -->
      <g transform="translate(67.860313 239.593351) rotate(-90) scale(0.1 -0.1)">
       <use xlink:href="#DejaVuSans-4b"/>
       <use xlink:href="#DejaVuSans-44" transform="translate(65.576172 0)"/>
      </g>
     </g>
    </g>
    <g id="ytick_8">
     <g id="line2d_17">
      <g>
       <use xlink:href="#m9eafff6748" x="76.94" y="266.566667" style="stroke: #000000; stroke-width: 0.8"/>
      </g>
     </g>
     <g id="text_17">
      <!-- S -->
      <g transform="translate(67.860313 269.740885) rotate(-90) scale(0.1 -0.1)">
       <use xlink:href="#DejaVuSans-53"/>
      </g>
     </g>
    </g>
    <g id="ytick_9">
     <g id="line2d_18">
      <g>
       <use xlink:href="#m9eafff6748" x="76.94" y="300.668889" style="stroke: #000000; stroke-width: 0.8"/>
      </g>
     </g>
     <g id="text_18">
      <!-- M -->
      <g transform="translate(67.860313 304.982951) rotate(-90) scale(0.1 -0.1)">
       <use xlink:href="#DejaVuSans-4d"/>
      </g>
     </g>
    </g>
   </g>
   <g id="text_19">
    <!-- 100.0 -->
    <g style="fill: #262626" transform="translate(79.677049 30.610486) scale(0.1 -0.1)">
     <defs>
      <path id="DejaVuSans-31" d="M 794 531 
L 1825 531 
L 1825 4091 
L 703 3866 
L 703 4441 
L 1819 4666 
L 2450 4666 
L 2450 531 
L 3481 531 
L 3481 0 
L 794 0 
L 794 531 
z
" transform="scale(0.015625)"/>
      <path id="DejaVuSans-30" d="M 2034 4250 
Q 1547 4250 1301 3770 
Q 1056 3291 1056 2328 
Q 1056 1369 1301 889 
Q 1547 409 2034 409 
Q 2525 409 2770 889 
Q 3016 1369 3016 2328 
Q 3016 3291 2770 3770 
Q 2525 4250 2034 4250 
z
M 2034 4750 
Q 2819 4750 3233 4129 
Q 3647 3509 3647 2328 
Q 3647 1150 3233 529 
Q 2819 -91 2034 -91 
Q 1250 -91 836 529 
Q 422 1150 422 2328 
Q 422 3509 836 4129 
Q 1250 4750 2034 4750 
z
" transform="scale(0.015625)"/>
      <path id="DejaVuSans-2e" d="M 684 794 
L 1344 794 
L 1344 0 
L 684 0 
L 684 794 
z
" transform="scale(0.015625)"/>
     </defs>
     <use xlink:href="#DejaVuSans-31"/>
     <use xlink:href="#DejaVuSans-30" transform="translate(63.623047 0)"/>
     <use xlink:href="#DejaVuSans-30" transform="translate(127.246094 0)"/>
     <use xlink:href="#DejaVuSans-2e" transform="translate(190.869141 0)"/>
     <use xlink:href="#DejaVuSans-30" transform="translate(222.65625 0)"/>
    </g>
   </g>
   <g id="text_20">
    <!-- 71.9 -->
    <g style="fill: #ffffff" transform="translate(116.960521 30.610486) scale(0.1 -0.1)">
     <defs>
      <path id="DejaVuSans-37" d="M 525 4666 
L 3525 4666 
L 3525 4397 
L 1831 0 
L 1172 0 
L 2766 4134 
L 525 4134 
L 525 4666 
z
" transform="scale(0.015625)"/>
      <path id="DejaVuSans-39" d="M 703 97 
L 703 672 
Q 941 559 1184 500 
Q 1428 441 1663 441 
Q 2288 441 2617 861 
Q 2947 1281 2994 2138 
Q 2813 1869 2534 1725 
Q 2256 1581 1919 1581 
Q 1219 1581 811 2004 
Q 403 2428 403 3163 
Q 403 3881 828 4315 
Q 1253 4750 1959 4750 
Q 2769 4750 3195 4129 
Q 3622 3509 3622 2328 
Q 3622 1225 3098 567 
Q 2575 -91 1691 -91 
Q 1453 -91 1209 -44 
Q 966 3 703 97 
z
M 1959 2075 
Q 2384 2075 2632 2365 
Q 2881 2656 2881 3163 
Q 2881 3666 2632 3958 
Q 2384 4250 1959 4250 
Q 1534 4250 1286 3958 
Q 1038 3666 1038 3163 
Q 1038 2656 1286 2365 
Q 1534 2075 1959 2075 
z
" transform="scale(0.015625)"/>
     </defs>
     <use xlink:href="#DejaVuSans-37"/>
     <use xlink:href="#DejaVuSans-31" transform="translate(63.623047 0)"/>
     <use xlink:href="#DejaVuSans-2e" transform="translate(127.246094 0)"/>
     <use xlink:href="#DejaVuSans-39" transform="translate(159.033203 0)"/>
    </g>
   </g>
   <g id="text_21">
    <!-- 84.1 -->
    <g style="fill: #262626" transform="translate(151.062743 30.610486) scale(0.1 -0.1)">
     <defs>
      <path id="DejaVuSans-38" d="M 2034 2216 
Q 1584 2216 1326 1975 
Q 1069 1734 1069 1313 
Q 1069 891 1326 650 
Q 1584 409 2034 409 
Q 2484 409 2743 651 
Q 3003 894 3003 1313 
Q 3003 1734 2745 1975 
Q 2488 2216 2034 2216 
z
M 1403 2484 
Q 997 2584 770 2862 
Q 544 3141 544 3541 
Q 544 4100 942 4425 
Q 1341 4750 2034 4750 
Q 2731 4750 3128 4425 
Q 3525 4100 3525 3541 
Q 3525 3141 3298 2862 
Q 3072 2584 2669 2484 
Q 3125 2378 3379 2068 
Q 3634 1759 3634 1313 
Q 3634 634 3220 271 
Q 2806 -91 2034 -91 
Q 1263 -91 848 271 
Q 434 634 434 1313 
Q 434 1759 690 2068 
Q 947 2378 1403 2484 
z
M 1172 3481 
Q 1172 3119 1398 2916 
Q 1625 2713 2034 2713 
Q 2441 2713 2670 2916 
Q 2900 3119 2900 3481 
Q 2900 3844 2670 4047 
Q 2441 4250 2034 4250 
Q 1625 4250 1398 4047 
Q 1172 3844 1172 3481 
z
" transform="scale(0.015625)"/>
      <path id="DejaVuSans-34" d="M 2419 4116 
L 825 1625 
L 2419 1625 
L 2419 4116 
z
M 2253 4666 
L 3047 4666 
L 3047 1625 
L 3713 1625 
L 3713 1100 
L 3047 1100 
L 3047 0 
L 2419 0 
L 2419 1100 
L 313 1100 
L 313 1709 
L 2253 4666 
z
" transform="scale(0.015625)"/>
     </defs>
     <use xlink:href="#DejaVuSans-38"/>
     <use xlink:href="#DejaVuSans-34" transform="translate(63.623047 0)"/>
     <use xlink:href="#DejaVuSans-2e" transform="translate(127.246094 0)"/>
     <use xlink:href="#DejaVuSans-31" transform="translate(159.033203 0)"/>
    </g>
   </g>
   <g id="text_22">
    <!-- 82.9 -->
    <g style="fill: #262626" transform="translate(185.164965 30.610486) scale(0.1 -0.1)">
     <defs>
      <path id="DejaVuSans-32" d="M 1228 531 
L 3431 531 
L 3431 0 
L 469 0 
L 469 531 
Q 828 903 1448 1529 
Q 2069 2156 2228 2338 
Q 2531 2678 2651 2914 
Q 2772 3150 2772 3378 
Q 2772 3750 2511 3984 
Q 2250 4219 1831 4219 
Q 1534 4219 1204 4116 
Q 875 4013 500 3803 
L 500 4441 
Q 881 4594 1212 4672 
Q 1544 4750 1819 4750 
Q 2544 4750 2975 4387 
Q 3406 4025 3406 3419 
Q 3406 3131 3298 2873 
Q 3191 2616 2906 2266 
Q 2828 2175 2409 1742 
Q 1991 1309 1228 531 
z
" transform="scale(0.015625)"/>
     </defs>
     <use xlink:href="#DejaVuSans-38"/>
     <use xlink:href="#DejaVuSans-32" transform="translate(63.623047 0)"/>
     <use xlink:href="#DejaVuSans-2e" transform="translate(127.246094 0)"/>
     <use xlink:href="#DejaVuSans-39" transform="translate(159.033203 0)"/>
    </g>
   </g>
   <g id="text_23">
    <!-- 59.3 -->
    <g style="fill: #ffffff" transform="translate(219.267188 30.610486) scale(0.1 -0.1)">
     <defs>
      <path id="DejaVuSans-35" d="M 691 4666 
L 3169 4666 
L 3169 4134 
L 1269 4134 
L 1269 2991 
Q 1406 3038 1543 3061 
Q 1681 3084 1819 3084 
Q 2600 3084 3056 2656 
Q 3513 2228 3513 1497 
Q 3513 744 3044 326 
Q 2575 -91 1722 -91 
Q 1428 -91 1123 -41 
Q 819 9 494 109 
L 494 744 
Q 775 591 1075 516 
Q 1375 441 1709 441 
Q 2250 441 2565 725 
Q 2881 1009 2881 1497 
Q 2881 1984 2565 2268 
Q 2250 2553 1709 2553 
Q 1456 2553 1204 2497 
Q 953 2441 691 2322 
L 691 4666 
z
" transform="scale(0.015625)"/>
      <path id="DejaVuSans-33" d="M 2597 2516 
Q 3050 2419 3304 2112 
Q 3559 1806 3559 1356 
Q 3559 666 3084 287 
Q 2609 -91 1734 -91 
Q 1441 -91 1130 -33 
Q 819 25 488 141 
L 488 750 
Q 750 597 1062 519 
Q 1375 441 1716 441 
Q 2309 441 2620 675 
Q 2931 909 2931 1356 
Q 2931 1769 2642 2001 
Q 2353 2234 1838 2234 
L 1294 2234 
L 1294 2753 
L 1863 2753 
Q 2328 2753 2575 2939 
Q 2822 3125 2822 3475 
Q 2822 3834 2567 4026 
Q 2313 4219 1838 4219 
Q 1578 4219 1281 4162 
Q 984 4106 628 3988 
L 628 4550 
Q 988 4650 1302 4700 
Q 1616 4750 1894 4750 
Q 2613 4750 3031 4423 
Q 3450 4097 3450 3541 
Q 3450 3153 3228 2886 
Q 3006 2619 2597 2516 
z
" transform="scale(0.015625)"/>
     </defs>
     <use xlink:href="#DejaVuSans-35"/>
     <use xlink:href="#DejaVuSans-39" transform="translate(63.623047 0)"/>
     <use xlink:href="#DejaVuSans-2e" transform="translate(127.246094 0)"/>
     <use xlink:href="#DejaVuSans-33" transform="translate(159.033203 0)"/>
    </g>
   </g>
   <g id="text_24">
    <!-- 26.1 -->
    <g style="fill: #ffffff" transform="translate(253.36941 30.610486) scale(0.1 -0.1)">
     <defs>
      <path id="DejaVuSans-36" d="M 2113 2584 
Q 1688 2584 1439 2293 
Q 1191 2003 1191 1497 
Q 1191 994 1439 701 
Q 1688 409 2113 409 
Q 2538 409 2786 701 
Q 3034 994 3034 1497 
Q 3034 2003 2786 2293 
Q 2538 2584 2113 2584 
z
M 3366 4563 
L 3366 3988 
Q 3128 4100 2886 4159 
Q 2644 4219 2406 4219 
Q 1781 4219 1451 3797 
Q 1122 3375 1075 2522 
Q 1259 2794 1537 2939 
Q 1816 3084 2150 3084 
Q 2853 3084 3261 2657 
Q 3669 2231 3669 1497 
Q 3669 778 3244 343 
Q 2819 -91 2113 -91 
Q 1303 -91 875 529 
Q 447 1150 447 2328 
Q 447 3434 972 4092 
Q 1497 4750 2381 4750 
Q 2619 4750 2861 4703 
Q 3103 4656 3366 4563 
z
" transform="scale(0.015625)"/>
     </defs>
     <use xlink:href="#DejaVuSans-32"/>
     <use xlink:href="#DejaVuSans-36" transform="translate(63.623047 0)"/>
     <use xlink:href="#DejaVuSans-2e" transform="translate(127.246094 0)"/>
     <use xlink:href="#DejaVuSans-31" transform="translate(159.033203 0)"/>
    </g>
   </g>
   <g id="text_25">
    <!-- 29.4 -->
    <g style="fill: #ffffff" transform="translate(287.471632 30.610486) scale(0.1 -0.1)">
     <use xlink:href="#DejaVuSans-32"/>
     <use xlink:href="#DejaVuSans-39" transform="translate(63.623047 0)"/>
     <use xlink:href="#DejaVuSans-2e" transform="translate(127.246094 0)"/>
     <use xlink:href="#DejaVuSans-34" transform="translate(159.033203 0)"/>
    </g>
   </g>
   <g id="text_26">
    <!-- 26.6 -->
    <g style="fill: #ffffff" transform="translate(321.573854 30.610486) scale(0.1 -0.1)">
     <use xlink:href="#DejaVuSans-32"/>
     <use xlink:href="#DejaVuSans-36" transform="translate(63.623047 0)"/>
     <use xlink:href="#DejaVuSans-2e" transform="translate(127.246094 0)"/>
     <use xlink:href="#DejaVuSans-36" transform="translate(159.033203 0)"/>
    </g>
   </g>
   <g id="text_27">
    <!-- 26.6 -->
    <g style="fill: #ffffff" transform="translate(355.676076 30.610486) scale(0.1 -0.1)">
     <use xlink:href="#DejaVuSans-32"/>
     <use xlink:href="#DejaVuSans-36" transform="translate(63.623047 0)"/>
     <use xlink:href="#DejaVuSans-2e" transform="translate(127.246094 0)"/>
     <use xlink:href="#DejaVuSans-36" transform="translate(159.033203 0)"/>
    </g>
   </g>
   <g id="text_28">
    <!-- 71.9 -->
    <g style="fill: #ffffff" transform="translate(82.858299 64.712708) scale(0.1 -0.1)">
     <use xlink:href="#DejaVuSans-37"/>
     <use xlink:href="#DejaVuSans-31" transform="translate(63.623047 0)"/>
     <use xlink:href="#DejaVuSans-2e" transform="translate(127.246094 0)"/>
     <use xlink:href="#DejaVuSans-39" transform="translate(159.033203 0)"/>
    </g>
   </g>
   <g id="text_29">
    <!-- 100.0 -->
    <g style="fill: #262626" transform="translate(113.779271 64.712708) scale(0.1 -0.1)">
     <use xlink:href="#DejaVuSans-31"/>
     <use xlink:href="#DejaVuSans-30" transform="translate(63.623047 0)"/>
     <use xlink:href="#DejaVuSans-30" transform="translate(127.246094 0)"/>
     <use xlink:href="#DejaVuSans-2e" transform="translate(190.869141 0)"/>
     <use xlink:href="#DejaVuSans-30" transform="translate(222.65625 0)"/>
    </g>
   </g>
   <g id="text_30">
    <!-- 61.7 -->
    <g style="fill: #ffffff" transform="translate(151.062743 64.712708) scale(0.1 -0.1)">
     <use xlink:href="#DejaVuSans-36"/>
     <use xlink:href="#DejaVuSans-31" transform="translate(63.623047 0)"/>
     <use xlink:href="#DejaVuSans-2e" transform="translate(127.246094 0)"/>
     <use xlink:href="#DejaVuSans-37" transform="translate(159.033203 0)"/>
    </g>
   </g>
   <g id="text_31">
    <!-- 60.5 -->
    <g style="fill: #ffffff" transform="translate(185.164965 64.712708) scale(0.1 -0.1)">
     <use xlink:href="#DejaVuSans-36"/>
     <use xlink:href="#DejaVuSans-30" transform="translate(63.623047 0)"/>
     <use xlink:href="#DejaVuSans-2e" transform="translate(127.246094 0)"/>
     <use xlink:href="#DejaVuSans-35" transform="translate(159.033203 0)"/>
    </g>
   </g>
   <g id="text_32">
    <!-- 35.5 -->
    <g style="fill: #ffffff" transform="translate(219.267188 64.712708) scale(0.1 -0.1)">
     <use xlink:href="#DejaVuSans-33"/>
     <use xlink:href="#DejaVuSans-35" transform="translate(63.623047 0)"/>
     <use xlink:href="#DejaVuSans-2e" transform="translate(127.246094 0)"/>
     <use xlink:href="#DejaVuSans-35" transform="translate(159.033203 0)"/>
    </g>
   </g>
   <g id="text_33">
    <!-- 41.5 -->
    <g style="fill: #ffffff" transform="translate(253.36941 64.712708) scale(0.1 -0.1)">
     <use xlink:href="#DejaVuSans-34"/>
     <use xlink:href="#DejaVuSans-31" transform="translate(63.623047 0)"/>
     <use xlink:href="#DejaVuSans-2e" transform="translate(127.246094 0)"/>
     <use xlink:href="#DejaVuSans-35" transform="translate(159.033203 0)"/>
    </g>
   </g>
   <g id="text_34">
    <!-- 29.4 -->
    <g style="fill: #ffffff" transform="translate(287.471632 64.712708) scale(0.1 -0.1)">
     <use xlink:href="#DejaVuSans-32"/>
     <use xlink:href="#DejaVuSans-39" transform="translate(63.623047 0)"/>
     <use xlink:href="#DejaVuSans-2e" transform="translate(127.246094 0)"/>
     <use xlink:href="#DejaVuSans-34" transform="translate(159.033203 0)"/>
    </g>
   </g>
   <g id="text_35">
    <!-- 27.6 -->
    <g style="fill: #ffffff" transform="translate(321.573854 64.712708) scale(0.1 -0.1)">
     <use xlink:href="#DejaVuSans-32"/>
     <use xlink:href="#DejaVuSans-37" transform="translate(63.623047 0)"/>
     <use xlink:href="#DejaVuSans-2e" transform="translate(127.246094 0)"/>
     <use xlink:href="#DejaVuSans-36" transform="translate(159.033203 0)"/>
    </g>
   </g>
   <g id="text_36">
    <!-- 27.6 -->
    <g style="fill: #ffffff" transform="translate(355.676076 64.712708) scale(0.1 -0.1)">
     <use xlink:href="#DejaVuSans-32"/>
     <use xlink:href="#DejaVuSans-37" transform="translate(63.623047 0)"/>
     <use xlink:href="#DejaVuSans-2e" transform="translate(127.246094 0)"/>
     <use xlink:href="#DejaVuSans-36" transform="translate(159.033203 0)"/>
    </g>
   </g>
   <g id="text_37">
    <!-- 84.1 -->
    <g style="fill: #262626" transform="translate(82.858299 98.814931) scale(0.1 -0.1)">
     <use xlink:href="#DejaVuSans-38"/>
     <use xlink:href="#DejaVuSans-34" transform="translate(63.623047 0)"/>
     <use xlink:href="#DejaVuSans-2e" transform="translate(127.246094 0)"/>
     <use xlink:href="#DejaVuSans-31" transform="translate(159.033203 0)"/>
    </g>
   </g>
   <g id="text_38">
    <!-- 61.7 -->
    <g style="fill: #ffffff" transform="translate(116.960521 98.814931) scale(0.1 -0.1)">
     <use xlink:href="#DejaVuSans-36"/>
     <use xlink:href="#DejaVuSans-31" transform="translate(63.623047 0)"/>
     <use xlink:href="#DejaVuSans-2e" transform="translate(127.246094 0)"/>
     <use xlink:href="#DejaVuSans-37" transform="translate(159.033203 0)"/>
    </g>
   </g>
   <g id="text_39">
    <!-- 100.0 -->
    <g style="fill: #262626" transform="translate(147.881493 98.814931) scale(0.1 -0.1)">
     <use xlink:href="#DejaVuSans-31"/>
     <use xlink:href="#DejaVuSans-30" transform="translate(63.623047 0)"/>
     <use xlink:href="#DejaVuSans-30" transform="translate(127.246094 0)"/>
     <use xlink:href="#DejaVuSans-2e" transform="translate(190.869141 0)"/>
     <use xlink:href="#DejaVuSans-30" transform="translate(222.65625 0)"/>
    </g>
   </g>
   <g id="text_40">
    <!-- 75.3 -->
    <g style="fill: #ffffff" transform="translate(185.164965 98.814931) scale(0.1 -0.1)">
     <use xlink:href="#DejaVuSans-37"/>
     <use xlink:href="#DejaVuSans-35" transform="translate(63.623047 0)"/>
     <use xlink:href="#DejaVuSans-2e" transform="translate(127.246094 0)"/>
     <use xlink:href="#DejaVuSans-33" transform="translate(159.033203 0)"/>
    </g>
   </g>
   <g id="text_41">
    <!-- 65.2 -->
    <g style="fill: #ffffff" transform="translate(219.267188 98.814931) scale(0.1 -0.1)">
     <use xlink:href="#DejaVuSans-36"/>
     <use xlink:href="#DejaVuSans-35" transform="translate(63.623047 0)"/>
     <use xlink:href="#DejaVuSans-2e" transform="translate(127.246094 0)"/>
     <use xlink:href="#DejaVuSans-32" transform="translate(159.033203 0)"/>
    </g>
   </g>
   <g id="text_42">
    <!-- 23.5 -->
    <g style="fill: #ffffff" transform="translate(253.36941 98.814931) scale(0.1 -0.1)">
     <use xlink:href="#DejaVuSans-32"/>
     <use xlink:href="#DejaVuSans-33" transform="translate(63.623047 0)"/>
     <use xlink:href="#DejaVuSans-2e" transform="translate(127.246094 0)"/>
     <use xlink:href="#DejaVuSans-35" transform="translate(159.033203 0)"/>
    </g>
   </g>
   <g id="text_43">
    <!-- 25.7 -->
    <g style="fill: #ffffff" transform="translate(287.471632 98.814931) scale(0.1 -0.1)">
     <use xlink:href="#DejaVuSans-32"/>
     <use xlink:href="#DejaVuSans-35" transform="translate(63.623047 0)"/>
     <use xlink:href="#DejaVuSans-2e" transform="translate(127.246094 0)"/>
     <use xlink:href="#DejaVuSans-37" transform="translate(159.033203 0)"/>
    </g>
   </g>
   <g id="text_44">
    <!-- 29.6 -->
    <g style="fill: #ffffff" transform="translate(321.573854 98.814931) scale(0.1 -0.1)">
     <use xlink:href="#DejaVuSans-32"/>
     <use xlink:href="#DejaVuSans-39" transform="translate(63.623047 0)"/>
     <use xlink:href="#DejaVuSans-2e" transform="translate(127.246094 0)"/>
     <use xlink:href="#DejaVuSans-36" transform="translate(159.033203 0)"/>
    </g>
   </g>
   <g id="text_45">
    <!-- 29.6 -->
    <g style="fill: #ffffff" transform="translate(355.676076 98.814931) scale(0.1 -0.1)">
     <use xlink:href="#DejaVuSans-32"/>
     <use xlink:href="#DejaVuSans-39" transform="translate(63.623047 0)"/>
     <use xlink:href="#DejaVuSans-2e" transform="translate(127.246094 0)"/>
     <use xlink:href="#DejaVuSans-36" transform="translate(159.033203 0)"/>
    </g>
   </g>
   <g id="text_46">
    <!-- 82.9 -->
    <g style="fill: #262626" transform="translate(82.858299 132.917153) scale(0.1 -0.1)">
     <use xlink:href="#DejaVuSans-38"/>
     <use xlink:href="#DejaVuSans-32" transform="translate(63.623047 0)"/>
     <use xlink:href="#DejaVuSans-2e" transform="translate(127.246094 0)"/>
     <use xlink:href="#DejaVuSans-39" transform="translate(159.033203 0)"/>
    </g>
   </g>
   <g id="text_47">
    <!-- 60.5 -->
    <g style="fill: #ffffff" transform="translate(116.960521 132.917153) scale(0.1 -0.1)">
     <use xlink:href="#DejaVuSans-36"/>
     <use xlink:href="#DejaVuSans-30" transform="translate(63.623047 0)"/>
     <use xlink:href="#DejaVuSans-2e" transform="translate(127.246094 0)"/>
     <use xlink:href="#DejaVuSans-35" transform="translate(159.033203 0)"/>
    </g>
   </g>
   <g id="text_48">
    <!-- 75.3 -->
    <g style="fill: #ffffff" transform="translate(151.062743 132.917153) scale(0.1 -0.1)">
     <use xlink:href="#DejaVuSans-37"/>
     <use xlink:href="#DejaVuSans-35" transform="translate(63.623047 0)"/>
     <use xlink:href="#DejaVuSans-2e" transform="translate(127.246094 0)"/>
     <use xlink:href="#DejaVuSans-33" transform="translate(159.033203 0)"/>
    </g>
   </g>
   <g id="text_49">
    <!-- 100.0 -->
    <g style="fill: #262626" transform="translate(181.983715 132.917153) scale(0.1 -0.1)">
     <use xlink:href="#DejaVuSans-31"/>
     <use xlink:href="#DejaVuSans-30" transform="translate(63.623047 0)"/>
     <use xlink:href="#DejaVuSans-30" transform="translate(127.246094 0)"/>
     <use xlink:href="#DejaVuSans-2e" transform="translate(190.869141 0)"/>
     <use xlink:href="#DejaVuSans-30" transform="translate(222.65625 0)"/>
    </g>
   </g>
   <g id="text_50">
    <!-- 58.7 -->
    <g style="fill: #ffffff" transform="translate(219.267188 132.917153) scale(0.1 -0.1)">
     <use xlink:href="#DejaVuSans-35"/>
     <use xlink:href="#DejaVuSans-38" transform="translate(63.623047 0)"/>
     <use xlink:href="#DejaVuSans-2e" transform="translate(127.246094 0)"/>
     <use xlink:href="#DejaVuSans-37" transform="translate(159.033203 0)"/>
    </g>
   </g>
   <g id="text_51">
    <!-- 31.7 -->
    <g style="fill: #ffffff" transform="translate(253.36941 132.917153) scale(0.1 -0.1)">
     <use xlink:href="#DejaVuSans-33"/>
     <use xlink:href="#DejaVuSans-31" transform="translate(63.623047 0)"/>
     <use xlink:href="#DejaVuSans-2e" transform="translate(127.246094 0)"/>
     <use xlink:href="#DejaVuSans-37" transform="translate(159.033203 0)"/>
    </g>
   </g>
   <g id="text_52">
    <!-- 39.9 -->
    <g style="fill: #ffffff" transform="translate(287.471632 132.917153) scale(0.1 -0.1)">
     <use xlink:href="#DejaVuSans-33"/>
     <use xlink:href="#DejaVuSans-39" transform="translate(63.623047 0)"/>
     <use xlink:href="#DejaVuSans-2e" transform="translate(127.246094 0)"/>
     <use xlink:href="#DejaVuSans-39" transform="translate(159.033203 0)"/>
    </g>
   </g>
   <g id="text_53">
    <!-- 32.6 -->
    <g style="fill: #ffffff" transform="translate(321.573854 132.917153) scale(0.1 -0.1)">
     <use xlink:href="#DejaVuSans-33"/>
     <use xlink:href="#DejaVuSans-32" transform="translate(63.623047 0)"/>
     <use xlink:href="#DejaVuSans-2e" transform="translate(127.246094 0)"/>
     <use xlink:href="#DejaVuSans-36" transform="translate(159.033203 0)"/>
    </g>
   </g>
   <g id="text_54">
    <!-- 32.6 -->
    <g style="fill: #ffffff" transform="translate(355.676076 132.917153) scale(0.1 -0.1)">
     <use xlink:href="#DejaVuSans-33"/>
     <use xlink:href="#DejaVuSans-32" transform="translate(63.623047 0)"/>
     <use xlink:href="#DejaVuSans-2e" transform="translate(127.246094 0)"/>
     <use xlink:href="#DejaVuSans-36" transform="translate(159.033203 0)"/>
    </g>
   </g>
   <g id="text_55">
    <!-- 59.3 -->
    <g style="fill: #ffffff" transform="translate(82.858299 167.019375) scale(0.1 -0.1)">
     <use xlink:href="#DejaVuSans-35"/>
     <use xlink:href="#DejaVuSans-39" transform="translate(63.623047 0)"/>
     <use xlink:href="#DejaVuSans-2e" transform="translate(127.246094 0)"/>
     <use xlink:href="#DejaVuSans-33" transform="translate(159.033203 0)"/>
    </g>
   </g>
   <g id="text_56">
    <!-- 35.5 -->
    <g style="fill: #ffffff" transform="translate(116.960521 167.019375) scale(0.1 -0.1)">
     <use xlink:href="#DejaVuSans-33"/>
     <use xlink:href="#DejaVuSans-35" transform="translate(63.623047 0)"/>
     <use xlink:href="#DejaVuSans-2e" transform="translate(127.246094 0)"/>
     <use xlink:href="#DejaVuSans-35" transform="translate(159.033203 0)"/>
    </g>
   </g>
   <g id="text_57">
    <!-- 65.2 -->
    <g style="fill: #ffffff" transform="translate(151.062743 167.019375) scale(0.1 -0.1)">
     <use xlink:href="#DejaVuSans-36"/>
     <use xlink:href="#DejaVuSans-35" transform="translate(63.623047 0)"/>
     <use xlink:href="#DejaVuSans-2e" transform="translate(127.246094 0)"/>
     <use xlink:href="#DejaVuSans-32" transform="translate(159.033203 0)"/>
    </g>
   </g>
   <g id="text_58">
    <!-- 58.7 -->
    <g style="fill: #ffffff" transform="translate(185.164965 167.019375) scale(0.1 -0.1)">
     <use xlink:href="#DejaVuSans-35"/>
     <use xlink:href="#DejaVuSans-38" transform="translate(63.623047 0)"/>
     <use xlink:href="#DejaVuSans-2e" transform="translate(127.246094 0)"/>
     <use xlink:href="#DejaVuSans-37" transform="translate(159.033203 0)"/>
    </g>
   </g>
   <g id="text_59">
    <!-- 100.0 -->
    <g style="fill: #262626" transform="translate(216.085938 167.019375) scale(0.1 -0.1)">
     <use xlink:href="#DejaVuSans-31"/>
     <use xlink:href="#DejaVuSans-30" transform="translate(63.623047 0)"/>
     <use xlink:href="#DejaVuSans-30" transform="translate(127.246094 0)"/>
     <use xlink:href="#DejaVuSans-2e" transform="translate(190.869141 0)"/>
     <use xlink:href="#DejaVuSans-30" transform="translate(222.65625 0)"/>
    </g>
   </g>
   <g id="text_60">
    <!-- 30.8 -->
    <g style="fill: #ffffff" transform="translate(253.36941 167.019375) scale(0.1 -0.1)">
     <use xlink:href="#DejaVuSans-33"/>
     <use xlink:href="#DejaVuSans-30" transform="translate(63.623047 0)"/>
     <use xlink:href="#DejaVuSans-2e" transform="translate(127.246094 0)"/>
     <use xlink:href="#DejaVuSans-38" transform="translate(159.033203 0)"/>
    </g>
   </g>
   <g id="text_61">
    <!-- 41.0 -->
    <g style="fill: #ffffff" transform="translate(287.471632 167.019375) scale(0.1 -0.1)">
     <use xlink:href="#DejaVuSans-34"/>
     <use xlink:href="#DejaVuSans-31" transform="translate(63.623047 0)"/>
     <use xlink:href="#DejaVuSans-2e" transform="translate(127.246094 0)"/>
     <use xlink:href="#DejaVuSans-30" transform="translate(159.033203 0)"/>
    </g>
   </g>
   <g id="text_62">
    <!-- 39.9 -->
    <g style="fill: #ffffff" transform="translate(321.573854 167.019375) scale(0.1 -0.1)">
     <use xlink:href="#DejaVuSans-33"/>
     <use xlink:href="#DejaVuSans-39" transform="translate(63.623047 0)"/>
     <use xlink:href="#DejaVuSans-2e" transform="translate(127.246094 0)"/>
     <use xlink:href="#DejaVuSans-39" transform="translate(159.033203 0)"/>
    </g>
   </g>
   <g id="text_63">
    <!-- 39.9 -->
    <g style="fill: #ffffff" transform="translate(355.676076 167.019375) scale(0.1 -0.1)">
     <use xlink:href="#DejaVuSans-33"/>
     <use xlink:href="#DejaVuSans-39" transform="translate(63.623047 0)"/>
     <use xlink:href="#DejaVuSans-2e" transform="translate(127.246094 0)"/>
     <use xlink:href="#DejaVuSans-39" transform="translate(159.033203 0)"/>
    </g>
   </g>
   <g id="text_64">
    <!-- 26.1 -->
    <g style="fill: #ffffff" transform="translate(82.858299 201.121597) scale(0.1 -0.1)">
     <use xlink:href="#DejaVuSans-32"/>
     <use xlink:href="#DejaVuSans-36" transform="translate(63.623047 0)"/>
     <use xlink:href="#DejaVuSans-2e" transform="translate(127.246094 0)"/>
     <use xlink:href="#DejaVuSans-31" transform="translate(159.033203 0)"/>
    </g>
   </g>
   <g id="text_65">
    <!-- 41.5 -->
    <g style="fill: #ffffff" transform="translate(116.960521 201.121597) scale(0.1 -0.1)">
     <use xlink:href="#DejaVuSans-34"/>
     <use xlink:href="#DejaVuSans-31" transform="translate(63.623047 0)"/>
     <use xlink:href="#DejaVuSans-2e" transform="translate(127.246094 0)"/>
     <use xlink:href="#DejaVuSans-35" transform="translate(159.033203 0)"/>
    </g>
   </g>
   <g id="text_66">
    <!-- 23.5 -->
    <g style="fill: #ffffff" transform="translate(151.062743 201.121597) scale(0.1 -0.1)">
     <use xlink:href="#DejaVuSans-32"/>
     <use xlink:href="#DejaVuSans-33" transform="translate(63.623047 0)"/>
     <use xlink:href="#DejaVuSans-2e" transform="translate(127.246094 0)"/>
     <use xlink:href="#DejaVuSans-35" transform="translate(159.033203 0)"/>
    </g>
   </g>
   <g id="text_67">
    <!-- 31.7 -->
    <g style="fill: #ffffff" transform="translate(185.164965 201.121597) scale(0.1 -0.1)">
     <use xlink:href="#DejaVuSans-33"/>
     <use xlink:href="#DejaVuSans-31" transform="translate(63.623047 0)"/>
     <use xlink:href="#DejaVuSans-2e" transform="translate(127.246094 0)"/>
     <use xlink:href="#DejaVuSans-37" transform="translate(159.033203 0)"/>
    </g>
   </g>
   <g id="text_68">
    <!-- 30.8 -->
    <g style="fill: #ffffff" transform="translate(219.267188 201.121597) scale(0.1 -0.1)">
     <use xlink:href="#DejaVuSans-33"/>
     <use xlink:href="#DejaVuSans-30" transform="translate(63.623047 0)"/>
     <use xlink:href="#DejaVuSans-2e" transform="translate(127.246094 0)"/>
     <use xlink:href="#DejaVuSans-38" transform="translate(159.033203 0)"/>
    </g>
   </g>
   <g id="text_69">
    <!-- 100.0 -->
    <g style="fill: #262626" transform="translate(250.18816 201.121597) scale(0.1 -0.1)">
     <use xlink:href="#DejaVuSans-31"/>
     <use xlink:href="#DejaVuSans-30" transform="translate(63.623047 0)"/>
     <use xlink:href="#DejaVuSans-30" transform="translate(127.246094 0)"/>
     <use xlink:href="#DejaVuSans-2e" transform="translate(190.869141 0)"/>
     <use xlink:href="#DejaVuSans-30" transform="translate(222.65625 0)"/>
    </g>
   </g>
   <g id="text_70">
    <!-- 82.5 -->
    <g style="fill: #262626" transform="translate(287.471632 201.121597) scale(0.1 -0.1)">
     <use xlink:href="#DejaVuSans-38"/>
     <use xlink:href="#DejaVuSans-32" transform="translate(63.623047 0)"/>
     <use xlink:href="#DejaVuSans-2e" transform="translate(127.246094 0)"/>
     <use xlink:href="#DejaVuSans-35" transform="translate(159.033203 0)"/>
    </g>
   </g>
   <g id="text_71">
    <!-- 83.8 -->
    <g style="fill: #262626" transform="translate(321.573854 201.121597) scale(0.1 -0.1)">
     <use xlink:href="#DejaVuSans-38"/>
     <use xlink:href="#DejaVuSans-33" transform="translate(63.623047 0)"/>
     <use xlink:href="#DejaVuSans-2e" transform="translate(127.246094 0)"/>
     <use xlink:href="#DejaVuSans-38" transform="translate(159.033203 0)"/>
    </g>
   </g>
   <g id="text_72">
    <!-- 83.8 -->
    <g style="fill: #262626" transform="translate(355.676076 201.121597) scale(0.1 -0.1)">
     <use xlink:href="#DejaVuSans-38"/>
     <use xlink:href="#DejaVuSans-33" transform="translate(63.623047 0)"/>
     <use xlink:href="#DejaVuSans-2e" transform="translate(127.246094 0)"/>
     <use xlink:href="#DejaVuSans-38" transform="translate(159.033203 0)"/>
    </g>
   </g>
   <g id="text_73">
    <!-- 29.4 -->
    <g style="fill: #ffffff" transform="translate(82.858299 235.223819) scale(0.1 -0.1)">
     <use xlink:href="#DejaVuSans-32"/>
     <use xlink:href="#DejaVuSans-39" transform="translate(63.623047 0)"/>
     <use xlink:href="#DejaVuSans-2e" transform="translate(127.246094 0)"/>
     <use xlink:href="#DejaVuSans-34" transform="translate(159.033203 0)"/>
    </g>
   </g>
   <g id="text_74">
    <!-- 29.4 -->
    <g style="fill: #ffffff" transform="translate(116.960521 235.223819) scale(0.1 -0.1)">
     <use xlink:href="#DejaVuSans-32"/>
     <use xlink:href="#DejaVuSans-39" transform="translate(63.623047 0)"/>
     <use xlink:href="#DejaVuSans-2e" transform="translate(127.246094 0)"/>
     <use xlink:href="#DejaVuSans-34" transform="translate(159.033203 0)"/>
    </g>
   </g>
   <g id="text_75">
    <!-- 25.7 -->
    <g style="fill: #ffffff" transform="translate(151.062743 235.223819) scale(0.1 -0.1)">
     <use xlink:href="#DejaVuSans-32"/>
     <use xlink:href="#DejaVuSans-35" transform="translate(63.623047 0)"/>
     <use xlink:href="#DejaVuSans-2e" transform="translate(127.246094 0)"/>
     <use xlink:href="#DejaVuSans-37" transform="translate(159.033203 0)"/>
    </g>
   </g>
   <g id="text_76">
    <!-- 39.9 -->
    <g style="fill: #ffffff" transform="translate(185.164965 235.223819) scale(0.1 -0.1)">
     <use xlink:href="#DejaVuSans-33"/>
     <use xlink:href="#DejaVuSans-39" transform="translate(63.623047 0)"/>
     <use xlink:href="#DejaVuSans-2e" transform="translate(127.246094 0)"/>
     <use xlink:href="#DejaVuSans-39" transform="translate(159.033203 0)"/>
    </g>
   </g>
   <g id="text_77">
    <!-- 41.0 -->
    <g style="fill: #ffffff" transform="translate(219.267188 235.223819) scale(0.1 -0.1)">
     <use xlink:href="#DejaVuSans-34"/>
     <use xlink:href="#DejaVuSans-31" transform="translate(63.623047 0)"/>
     <use xlink:href="#DejaVuSans-2e" transform="translate(127.246094 0)"/>
     <use xlink:href="#DejaVuSans-30" transform="translate(159.033203 0)"/>
    </g>
   </g>
   <g id="text_78">
    <!-- 82.5 -->
    <g style="fill: #262626" transform="translate(253.36941 235.223819) scale(0.1 -0.1)">
     <use xlink:href="#DejaVuSans-38"/>
     <use xlink:href="#DejaVuSans-32" transform="translate(63.623047 0)"/>
     <use xlink:href="#DejaVuSans-2e" transform="translate(127.246094 0)"/>
     <use xlink:href="#DejaVuSans-35" transform="translate(159.033203 0)"/>
    </g>
   </g>
   <g id="text_79">
    <!-- 100.0 -->
    <g style="fill: #262626" transform="translate(284.290382 235.223819) scale(0.1 -0.1)">
     <use xlink:href="#DejaVuSans-31"/>
     <use xlink:href="#DejaVuSans-30" transform="translate(63.623047 0)"/>
     <use xlink:href="#DejaVuSans-30" transform="translate(127.246094 0)"/>
     <use xlink:href="#DejaVuSans-2e" transform="translate(190.869141 0)"/>
     <use xlink:href="#DejaVuSans-30" transform="translate(222.65625 0)"/>
    </g>
   </g>
   <g id="text_80">
    <!-- 92.3 -->
    <g style="fill: #262626" transform="translate(321.573854 235.223819) scale(0.1 -0.1)">
     <use xlink:href="#DejaVuSans-39"/>
     <use xlink:href="#DejaVuSans-32" transform="translate(63.623047 0)"/>
     <use xlink:href="#DejaVuSans-2e" transform="translate(127.246094 0)"/>
     <use xlink:href="#DejaVuSans-33" transform="translate(159.033203 0)"/>
    </g>
   </g>
   <g id="text_81">
    <!-- 92.3 -->
    <g style="fill: #262626" transform="translate(355.676076 235.223819) scale(0.1 -0.1)">
     <use xlink:href="#DejaVuSans-39"/>
     <use xlink:href="#DejaVuSans-32" transform="translate(63.623047 0)"/>
     <use xlink:href="#DejaVuSans-2e" transform="translate(127.246094 0)"/>
     <use xlink:href="#DejaVuSans-33" transform="translate(159.033203 0)"/>
    </g>
   </g>
   <g id="text_82">
    <!-- 26.6 -->
    <g style="fill: #ffffff" transform="translate(82.858299 269.326042) scale(0.1 -0.1)">
     <use xlink:href="#DejaVuSans-32"/>
     <use xlink:href="#DejaVuSans-36" transform="translate(63.623047 0)"/>
     <use xlink:href="#DejaVuSans-2e" transform="translate(127.246094 0)"/>
     <use xlink:href="#DejaVuSans-36" transform="translate(159.033203 0)"/>
    </g>
   </g>
   <g id="text_83">
    <!-- 27.6 -->
    <g style="fill: #ffffff" transform="translate(116.960521 269.326042) scale(0.1 -0.1)">
     <use xlink:href="#DejaVuSans-32"/>
     <use xlink:href="#DejaVuSans-37" transform="translate(63.623047 0)"/>
     <use xlink:href="#DejaVuSans-2e" transform="translate(127.246094 0)"/>
     <use xlink:href="#DejaVuSans-36" transform="translate(159.033203 0)"/>
    </g>
   </g>
   <g id="text_84">
    <!-- 29.6 -->
    <g style="fill: #ffffff" transform="translate(151.062743 269.326042) scale(0.1 -0.1)">
     <use xlink:href="#DejaVuSans-32"/>
     <use xlink:href="#DejaVuSans-39" transform="translate(63.623047 0)"/>
     <use xlink:href="#DejaVuSans-2e" transform="translate(127.246094 0)"/>
     <use xlink:href="#DejaVuSans-36" transform="translate(159.033203 0)"/>
    </g>
   </g>
   <g id="text_85">
    <!-- 32.6 -->
    <g style="fill: #ffffff" transform="translate(185.164965 269.326042) scale(0.1 -0.1)">
     <use xlink:href="#DejaVuSans-33"/>
     <use xlink:href="#DejaVuSans-32" transform="translate(63.623047 0)"/>
     <use xlink:href="#DejaVuSans-2e" transform="translate(127.246094 0)"/>
     <use xlink:href="#DejaVuSans-36" transform="translate(159.033203 0)"/>
    </g>
   </g>
   <g id="text_86">
    <!-- 39.9 -->
    <g style="fill: #ffffff" transform="translate(219.267188 269.326042) scale(0.1 -0.1)">
     <use xlink:href="#DejaVuSans-33"/>
     <use xlink:href="#DejaVuSans-39" transform="translate(63.623047 0)"/>
     <use xlink:href="#DejaVuSans-2e" transform="translate(127.246094 0)"/>
     <use xlink:href="#DejaVuSans-39" transform="translate(159.033203 0)"/>
    </g>
   </g>
   <g id="text_87">
    <!-- 83.8 -->
    <g style="fill: #262626" transform="translate(253.36941 269.326042) scale(0.1 -0.1)">
     <use xlink:href="#DejaVuSans-38"/>
     <use xlink:href="#DejaVuSans-33" transform="translate(63.623047 0)"/>
     <use xlink:href="#DejaVuSans-2e" transform="translate(127.246094 0)"/>
     <use xlink:href="#DejaVuSans-38" transform="translate(159.033203 0)"/>
    </g>
   </g>
   <g id="text_88">
    <!-- 92.3 -->
    <g style="fill: #262626" transform="translate(287.471632 269.326042) scale(0.1 -0.1)">
     <use xlink:href="#DejaVuSans-39"/>
     <use xlink:href="#DejaVuSans-32" transform="translate(63.623047 0)"/>
     <use xlink:href="#DejaVuSans-2e" transform="translate(127.246094 0)"/>
     <use xlink:href="#DejaVuSans-33" transform="translate(159.033203 0)"/>
    </g>
   </g>
   <g id="text_89">
    <!-- 100.0 -->
    <g style="fill: #262626" transform="translate(318.392604 269.326042) scale(0.1 -0.1)">
     <use xlink:href="#DejaVuSans-31"/>
     <use xlink:href="#DejaVuSans-30" transform="translate(63.623047 0)"/>
     <use xlink:href="#DejaVuSans-30" transform="translate(127.246094 0)"/>
     <use xlink:href="#DejaVuSans-2e" transform="translate(190.869141 0)"/>
     <use xlink:href="#DejaVuSans-30" transform="translate(222.65625 0)"/>
    </g>
   </g>
   <g id="text_90">
    <!-- 100.0 -->
    <g style="fill: #262626" transform="translate(352.494826 269.326042) scale(0.1 -0.1)">
     <use xlink:href="#DejaVuSans-31"/>
     <use xlink:href="#DejaVuSans-30" transform="translate(63.623047 0)"/>
     <use xlink:href="#DejaVuSans-30" transform="translate(127.246094 0)"/>
     <use xlink:href="#DejaVuSans-2e" transform="translate(190.869141 0)"/>
     <use xlink:href="#DejaVuSans-30" transform="translate(222.65625 0)"/>
    </g>
   </g>
   <g id="text_91">
    <!-- 26.6 -->
    <g style="fill: #ffffff" transform="translate(82.858299 303.428264) scale(0.1 -0.1)">
     <use xlink:href="#DejaVuSans-32"/>
     <use xlink:href="#DejaVuSans-36" transform="translate(63.623047 0)"/>
     <use xlink:href="#DejaVuSans-2e" transform="translate(127.246094 0)"/>
     <use xlink:href="#DejaVuSans-36" transform="translate(159.033203 0)"/>
    </g>
   </g>
   <g id="text_92">
    <!-- 27.6 -->
    <g style="fill: #ffffff" transform="translate(116.960521 303.428264) scale(0.1 -0.1)">
     <use xlink:href="#DejaVuSans-32"/>
     <use xlink:href="#DejaVuSans-37" transform="translate(63.623047 0)"/>
     <use xlink:href="#DejaVuSans-2e" transform="translate(127.246094 0)"/>
     <use xlink:href="#DejaVuSans-36" transform="translate(159.033203 0)"/>
    </g>
   </g>
   <g id="text_93">
    <!-- 29.6 -->
    <g style="fill: #ffffff" transform="translate(151.062743 303.428264) scale(0.1 -0.1)">
     <use xlink:href="#DejaVuSans-32"/>
     <use xlink:href="#DejaVuSans-39" transform="translate(63.623047 0)"/>
     <use xlink:href="#DejaVuSans-2e" transform="translate(127.246094 0)"/>
     <use xlink:href="#DejaVuSans-36" transform="translate(159.033203 0)"/>
    </g>
   </g>
   <g id="text_94">
    <!-- 32.6 -->
    <g style="fill: #ffffff" transform="translate(185.164965 303.428264) scale(0.1 -0.1)">
     <use xlink:href="#DejaVuSans-33"/>
     <use xlink:href="#DejaVuSans-32" transform="translate(63.623047 0)"/>
     <use xlink:href="#DejaVuSans-2e" transform="translate(127.246094 0)"/>
     <use xlink:href="#DejaVuSans-36" transform="translate(159.033203 0)"/>
    </g>
   </g>
   <g id="text_95">
    <!-- 39.9 -->
    <g style="fill: #ffffff" transform="translate(219.267188 303.428264) scale(0.1 -0.1)">
     <use xlink:href="#DejaVuSans-33"/>
     <use xlink:href="#DejaVuSans-39" transform="translate(63.623047 0)"/>
     <use xlink:href="#DejaVuSans-2e" transform="translate(127.246094 0)"/>
     <use xlink:href="#DejaVuSans-39" transform="translate(159.033203 0)"/>
    </g>
   </g>
   <g id="text_96">
    <!-- 83.8 -->
    <g style="fill: #262626" transform="translate(253.36941 303.428264) scale(0.1 -0.1)">
     <use xlink:href="#DejaVuSans-38"/>
     <use xlink:href="#DejaVuSans-33" transform="translate(63.623047 0)"/>
     <use xlink:href="#DejaVuSans-2e" transform="translate(127.246094 0)"/>
     <use xlink:href="#DejaVuSans-38" transform="translate(159.033203 0)"/>
    </g>
   </g>
   <g id="text_97">
    <!-- 92.3 -->
    <g style="fill: #262626" transform="translate(287.471632 303.428264) scale(0.1 -0.1)">
     <use xlink:href="#DejaVuSans-39"/>
     <use xlink:href="#DejaVuSans-32" transform="translate(63.623047 0)"/>
     <use xlink:href="#DejaVuSans-2e" transform="translate(127.246094 0)"/>
     <use xlink:href="#DejaVuSans-33" transform="translate(159.033203 0)"/>
    </g>
   </g>
   <g id="text_98">
    <!-- 100.0 -->
    <g style="fill: #262626" transform="translate(318.392604 303.428264) scale(0.1 -0.1)">
     <use xlink:href="#DejaVuSans-31"/>
     <use xlink:href="#DejaVuSans-30" transform="translate(63.623047 0)"/>
     <use xlink:href="#DejaVuSans-30" transform="translate(127.246094 0)"/>
     <use xlink:href="#DejaVuSans-2e" transform="translate(190.869141 0)"/>
     <use xlink:href="#DejaVuSans-30" transform="translate(222.65625 0)"/>
    </g>
   </g>
   <g id="text_99">
    <!-- 100.0 -->
    <g style="fill: #262626" transform="translate(352.494826 303.428264) scale(0.1 -0.1)">
     <use xlink:href="#DejaVuSans-31"/>
     <use xlink:href="#DejaVuSans-30" transform="translate(63.623047 0)"/>
     <use xlink:href="#DejaVuSans-30" transform="translate(127.246094 0)"/>
     <use xlink:href="#DejaVuSans-2e" transform="translate(190.869141 0)"/>
     <use xlink:href="#DejaVuSans-30" transform="translate(222.65625 0)"/>
    </g>
   </g>
  </g>
 </g>
 <defs>
  <clipPath id="p4cae0cb20a">
   <rect x="76.94" y="10.8" width="306.92" height="306.92"/>
  </clipPath>
 </defs>
</svg>
